<svg width="217" height="69" viewBox="0 0 217 69" fill="none" xmlns="http://www.w3.org/2000/svg">
<path d="M34.1209 44.7351V42.0671C34.1213 42.0506 34.1214 42.034 34.1214 42.0175V19.6993C34.1214 19.0306 34.6671 18.4767 35.3403 18.4767H35.6514C36.1527 18.4767 36.5592 18.8804 36.5592 19.3784V21.3266C36.5549 21.385 36.5528 21.4441 36.5528 21.5036V36.3787C36.5528 39.0542 38.7362 41.2231 41.4298 41.2231H43.8677C46.5536 41.2231 48.7311 39.0602 48.7311 36.392V36.3191C48.7367 36.2665 48.7405 36.2136 48.7426 36.1602C48.7439 36.1282 48.7443 36.0962 48.7443 36.064V32.5356C48.7443 31.8669 49.2901 31.3067 49.9633 31.3067H50.6769C50.956 31.3067 51.1822 31.5314 51.1822 31.8086V34.0192C51.1737 34.1165 51.1694 34.2154 51.1694 34.3156V36.3792C51.1694 39.0481 53.3462 41.2123 56.0333 41.2148L62.747 41.2209C64.0938 41.2221 65.1862 40.1379 65.1862 38.8001C65.1862 37.4631 64.0951 36.3792 62.7492 36.3792H56.8769C56.418 36.3792 56.0461 36.0097 56.0461 35.5539V31.5859C56.0461 31.5274 56.0303 31.4712 56.0026 31.4224C55.686 29.0964 53.6798 27.3033 51.2512 27.3033H48.7443C46.0508 27.3033 43.8677 29.4722 43.8677 32.1477V36.6967C43.8677 36.9855 43.6317 37.2198 43.3411 37.2198H42.6488C41.9755 37.2198 41.4298 36.663 41.4298 35.9943V26.1094C41.4312 26.083 41.4322 26.0565 41.4328 26.0298C41.4332 26.011 41.4334 25.9922 41.4334 25.9733L41.4298 21.5247L41.4296 21.4957L41.4293 21.4769L41.4273 19.3045C41.4249 16.6356 39.246 14.4734 36.5592 14.4734H34.1214C31.4279 14.4734 29.2444 16.6423 29.2444 19.3177V49.3967C29.2444 49.8948 28.838 50.2984 28.3366 50.2984H28.0255C27.3524 50.2984 26.8067 49.7522 26.8067 49.0832V9.51469C26.8067 8.17696 25.7149 7.08643 24.3682 7.08643C23.0214 7.08643 21.9297 8.17087 21.9297 9.5086V49.4573C21.9297 52.1327 24.1132 54.3017 26.8067 54.3017H29.2444C31.9313 54.3017 34.1101 52.1395 34.1125 49.4704L34.1168 44.8777C34.1195 44.8303 34.1209 44.7829 34.1209 44.7351Z" fill="#6669FF"/>
<path d="M14.625 2.42195C14.625 1.08435 15.7166 0 17.0632 0C18.4099 0 19.5015 1.08435 19.5015 2.42195V66.578C19.5015 67.9155 18.4099 69 17.0632 69C15.7166 69 14.625 67.9155 14.625 66.578V2.42195Z" fill="#FF80FF"/>
<path d="M9.74757 18.0371C8.40269 18.0371 7.3125 19.12 7.3125 20.4559V48.3084C7.3125 49.6442 8.40269 50.727 9.74757 50.727C11.0924 50.727 12.1826 49.6442 12.1826 48.3084V20.4559C12.1826 19.12 11.0924 18.0371 9.74757 18.0371Z" fill="#FF80FF"/>
<path d="M2.43825 27.6035C1.09165 27.6035 0 28.6879 0 30.0255V38.4959C0 39.8335 1.09165 40.9179 2.43825 40.9179C3.78486 40.9179 4.87649 39.8335 4.87649 38.4959V30.0255C4.87649 28.6879 3.78486 27.6035 2.43825 27.6035Z" fill="#FF80FF"/>
<path d="M70.4374 38.7792C70.4374 40.1162 69.3463 41.2001 68 41.2001C66.6536 41.2001 65.5625 40.1162 65.5625 38.7792C65.5625 37.4422 66.6536 36.3584 68 36.3584C69.3463 36.3584 70.4374 37.4422 70.4374 38.7792Z" fill="#6669FF"/>
<path d="M92.3617 48.3525C85.7519 48.3525 81.8838 45.6622 80.9085 41.2976C80.6503 40.1437 81.6392 39.1635 82.8296 39.1635H85.6888C86.8516 39.1635 87.7066 40.1474 88.2256 41.1809C88.9137 42.5509 90.3669 43.1606 92.3157 43.1606C95.1362 43.1606 96.5694 41.8742 96.5694 39.8986C96.5694 38.1527 95.3671 37.004 92.5006 37.004H89.7266C84.2241 37.004 81.1262 34.1095 81.1262 29.7448C81.1262 24.7827 85.3339 21.4287 92.2232 21.4287C98.4739 21.4287 102.222 24.1201 103.202 28.3C103.472 29.4518 102.483 30.4339 101.292 30.4339H98.6145C97.4535 30.4339 96.6035 29.4476 96.0641 28.4265C95.4382 27.242 94.1788 26.6205 92.3157 26.6205C89.819 26.6205 88.3858 27.6772 88.3858 29.4691C88.3858 31.1691 89.6341 32.042 91.8994 32.042H94.9513C101.285 32.042 103.921 35.4419 103.921 39.6689C103.921 44.8147 99.9446 48.3525 92.3617 48.3525Z" fill="white"/>
<path d="M117.343 48.3525C109.575 48.3525 104.921 43.0688 104.921 34.8906C104.921 26.7124 109.205 21.4287 117.343 21.4287C123.77 21.4287 127.685 24.7926 128.965 29.6223C129.284 30.8259 128.284 31.9042 127.031 31.9042H124.38C123.257 31.9042 122.371 31.0193 122.031 29.9561C121.414 28.0288 119.98 26.6205 117.343 26.6205C113.367 26.6205 112.272 30.0664 112.272 34.8906C112.272 39.9905 113.69 43.1606 117.343 43.1606C119.772 43.1606 121.192 41.7662 121.89 40.1734C122.318 39.1969 123.186 38.3824 124.259 38.3824H126.952C128.233 38.3824 129.24 39.5093 128.841 40.7183C127.392 45.102 123.464 48.3525 117.343 48.3525Z" fill="white"/>
<path d="M133.163 47.5256C131.987 47.5256 131.033 46.5782 131.033 45.4099V24.3713C131.033 23.2028 131.987 22.2556 133.163 22.2556H135.956C136.991 22.2556 137.83 23.0887 137.83 24.1164V25.9204C137.83 25.9518 137.856 25.9772 137.887 25.9772C137.909 25.9772 137.929 25.9647 137.938 25.9455C139.185 23.4856 140.894 22.2556 143.841 22.2556H144.207C145.384 22.2556 146.337 23.2028 146.337 24.3713V25.5155C146.337 26.684 145.384 27.6312 144.207 27.6312H142.454C139.356 27.6312 137.922 29.1014 137.922 32.777V45.4099C137.922 46.5782 136.969 47.5256 135.792 47.5256H133.163Z" fill="white"/>
<path d="M149.568 47.5256C148.392 47.5256 147.438 46.5782 147.438 45.41V24.3713C147.438 23.2029 148.392 22.2557 149.568 22.2557H152.197C153.373 22.2557 154.327 23.2029 154.327 24.3713V45.41C154.327 46.5782 153.373 47.5256 152.197 47.5256H149.568ZM150.63 18.7179C148.841 18.7179 147.392 17.278 147.392 15.5018C147.392 13.7256 148.841 12.2856 150.63 12.2856H151.181C152.97 12.2856 154.419 13.7256 154.419 15.5018C154.419 17.278 152.97 18.7179 151.181 18.7179H150.63Z" fill="white"/>
<path d="M158.424 56.7144C157.247 56.7144 156.293 55.7674 156.293 54.5987V24.3714C156.293 23.2029 157.247 22.2557 158.424 22.2557H161.795C162.561 22.2557 163.183 22.8729 163.183 23.6341C163.183 24.4424 163.183 25.163 163.096 26.0102C163.093 26.0417 163.118 26.0691 163.15 26.0691C163.17 26.0691 163.188 26.0578 163.198 26.04C164.681 23.1629 167.495 21.4287 171.089 21.4287C176.961 21.4287 182.047 26.0691 182.047 34.8906C182.047 43.712 176.961 48.3525 171.089 48.3525C167.495 48.3525 164.681 46.6185 163.198 43.7412C163.188 43.7234 163.17 43.712 163.15 43.712C163.118 43.712 163.093 43.7395 163.096 43.7708C163.183 44.6661 163.183 45.4786 163.183 46.423V54.5987C163.183 55.7674 162.229 56.7144 161.052 56.7144H158.424ZM163.136 34.8906C163.136 39.9445 165.125 43.1606 168.916 43.1606C172.661 43.1606 174.696 39.9445 174.696 34.8906C174.696 29.8367 172.661 26.6205 168.916 26.6205C165.125 26.6205 163.136 29.8367 163.136 34.8906Z" fill="white"/>
<path d="M195.809 48.3525C188.272 48.3525 183.14 43.4822 183.14 34.8906C183.14 26.253 188.411 21.4287 195.763 21.4287C202.883 21.4287 208.154 25.6097 208.154 34.1095V34.6127C208.154 35.7812 207.201 36.7284 206.024 36.7284H190.446C190.585 40.7256 192.711 43.1606 195.948 43.1606C197.787 43.1606 199.183 42.4104 200.039 41.1624C200.564 40.3967 201.346 39.7607 202.279 39.7607H205.099C206.456 39.7607 207.477 41.0223 206.883 42.235C205.061 45.9563 201.133 48.3525 195.809 48.3525ZM190.492 32.0879H201.265C201.265 28.9178 199.462 26.6205 195.994 26.6205C192.434 26.6205 190.677 29.0097 190.492 32.0879Z" fill="white"/>
<path d="M213.211 47.5255C211.218 47.5255 209.602 45.921 209.602 43.9416C209.602 41.9624 211.218 40.3579 213.211 40.3579H213.392C215.384 40.3579 217 41.9624 217 43.9416C217 45.921 215.384 47.5255 213.392 47.5255H213.211Z" fill="#F7F8F8"/>
</svg>
