<svg width="71" height="69" viewBox="0 0 71 69" fill="none" xmlns="http://www.w3.org/2000/svg">
<path d="M34.1209 44.7351V42.0671C34.1213 42.0506 34.1214 42.034 34.1214 42.0175V19.6993C34.1214 19.0306 34.6671 18.4767 35.3403 18.4767H35.6514C36.1527 18.4767 36.5592 18.8804 36.5592 19.3784V21.3266C36.5549 21.385 36.5528 21.4441 36.5528 21.5036V36.3787C36.5528 39.0542 38.7362 41.2231 41.4298 41.2231H43.8677C46.5536 41.2231 48.7311 39.0602 48.7311 36.392V36.3191C48.7367 36.2665 48.7405 36.2135 48.7426 36.1602C48.7439 36.1282 48.7443 36.0962 48.7443 36.064V32.5356C48.7443 31.8669 49.2901 31.3067 49.9633 31.3067H50.6769C50.956 31.3067 51.1822 31.5314 51.1822 31.8086V34.0192C51.1737 34.1165 51.1694 34.2154 51.1694 34.3156V36.3792C51.1694 39.0481 53.3462 41.2123 56.0333 41.2148L62.747 41.2209C64.0938 41.2221 65.1862 40.1379 65.1862 38.8001C65.1862 37.4631 64.0951 36.3792 62.7492 36.3792H56.8769C56.418 36.3792 56.0461 36.0097 56.0461 35.5539V31.5859C56.0461 31.5274 56.0303 31.4712 56.0026 31.4224C55.686 29.0964 53.6798 27.3033 51.2512 27.3033H48.7443C46.0508 27.3033 43.8677 29.4722 43.8677 32.1477V36.6967C43.8677 36.9855 43.6317 37.2198 43.3411 37.2198H42.6488C41.9755 37.2198 41.4298 36.663 41.4298 35.9943V26.1094C41.4312 26.083 41.4322 26.0565 41.4328 26.0298C41.4332 26.011 41.4334 25.9922 41.4334 25.9733L41.4298 21.5247L41.4296 21.4957L41.4293 21.4769L41.4273 19.3045C41.4249 16.6356 39.246 14.4734 36.5592 14.4734H34.1214C31.4279 14.4734 29.2444 16.6423 29.2444 19.3177V49.3967C29.2444 49.8948 28.838 50.2984 28.3366 50.2984H28.0255C27.3524 50.2984 26.8067 49.7522 26.8067 49.0832V9.51469C26.8067 8.17696 25.7149 7.08643 24.3682 7.08643C23.0214 7.08643 21.9297 8.17087 21.9297 9.5086V49.4573C21.9297 52.1327 24.1132 54.3017 26.8067 54.3017H29.2444C31.9313 54.3017 34.1101 52.1395 34.1125 49.4704L34.1168 44.8777C34.1195 44.8303 34.1209 44.7829 34.1209 44.7351Z" fill="#6669FF"/>
<path d="M14.6211 2.42195C14.6211 1.08435 15.7127 0 17.0593 0C18.4059 0 19.4976 1.08435 19.4976 2.42195V66.578C19.4976 67.9155 18.4059 69 17.0593 69C15.7127 69 14.6211 67.9155 14.6211 66.578V2.42195Z" fill="#FF80FF"/>
<path d="M9.75148 18.0371C8.40659 18.0371 7.31641 19.12 7.31641 20.4559V48.3084C7.31641 49.6442 8.40659 50.727 9.75148 50.727C11.0963 50.727 12.1865 49.6442 12.1865 48.3084V20.4559C12.1865 19.12 11.0963 18.0371 9.75148 18.0371Z" fill="#FF80FF"/>
<path d="M2.43825 27.6035C1.09165 27.6035 0 28.6879 0 30.0255V38.4959C0 39.8335 1.09165 40.9179 2.43825 40.9179C3.78486 40.9179 4.87649 39.8335 4.87649 38.4959V30.0255C4.87649 28.6879 3.78486 27.6035 2.43825 27.6035Z" fill="#FF80FF"/>
<path d="M70.4374 38.7792C70.4374 40.1162 69.3463 41.2001 68 41.2001C66.6536 41.2001 65.5625 40.1162 65.5625 38.7792C65.5625 37.4422 66.6536 36.3584 68 36.3584C69.3463 36.3584 70.4374 37.4422 70.4374 38.7792Z" fill="#6669FF"/>
</svg>
