<svg width="217" height="70" viewBox="0 0 217 70" fill="none" xmlns="http://www.w3.org/2000/svg">
<path d="M34.12 45.5233V42.8368C34.1203 42.8202 34.1205 42.8035 34.1205 42.7868V20.3145C34.1205 19.6412 34.6662 19.0835 35.3393 19.0835H35.6504C36.1518 19.0835 36.5582 19.49 36.5582 19.9914V21.953C36.554 22.0119 36.5518 22.0713 36.5518 22.1313V37.1092C36.5518 39.8031 38.7353 41.987 41.4288 41.987H43.8668C46.5526 41.987 48.7302 39.8091 48.7302 37.1225V37.0491C48.7357 36.9962 48.7395 36.9428 48.7417 36.8891C48.7429 36.8569 48.7434 36.8246 48.7434 36.7922V33.2394C48.7434 32.5662 49.2891 32.0021 49.9623 32.0021H50.676C50.955 32.0021 51.1812 32.2283 51.1812 32.5074V34.7333C51.1727 34.8313 51.1685 34.9309 51.1685 35.0318V37.1097C51.1685 39.797 53.3452 41.9762 56.0323 41.9786L62.7461 41.9848C64.0928 41.986 65.1852 40.8943 65.1852 39.5472C65.1852 38.201 64.0941 37.1097 62.7482 37.1097H56.8759C56.417 37.1097 56.0451 36.7376 56.0451 36.2787V32.2832C56.0451 32.2243 56.0293 32.1677 56.0016 32.1186C55.6851 29.7765 53.6788 27.971 51.2503 27.971H48.7434C46.0499 27.971 43.8668 30.1549 43.8668 32.8489V37.4293C43.8668 37.7202 43.6307 37.956 43.3401 37.956H42.6478C41.9745 37.956 41.4288 37.3953 41.4288 36.7221V26.7689C41.4302 26.7423 41.4313 26.7156 41.4319 26.6887C41.4322 26.6698 41.4324 26.6509 41.4324 26.6319L41.4288 22.1525L41.4287 22.1233L41.4284 22.1044L41.4264 19.917C41.4239 17.2297 39.245 15.0525 36.5582 15.0525H34.1205C31.4269 15.0525 29.2435 17.2363 29.2435 19.9303V50.2171C29.2435 50.7186 28.837 51.125 28.3357 51.125H28.0246C27.3514 51.125 26.8057 50.575 26.8057 49.9014V10.0595C26.8057 8.71257 25.7139 7.6145 24.3672 7.6145C23.0204 7.6145 21.9287 8.70644 21.9287 10.0534V50.278C21.9287 52.972 24.1122 55.1559 26.8057 55.1559H29.2435C31.9303 55.1559 34.1091 52.9788 34.1116 50.2912L34.1158 45.6669C34.1185 45.6191 34.12 45.5714 34.12 45.5233Z" fill="#6669FF"/>
<path d="M14.6221 2.91793C14.6221 1.57109 15.7137 0.479248 17.0603 0.479248C18.4069 0.479248 19.4986 1.57109 19.4986 2.91793V67.5172C19.4986 68.8639 18.4069 69.9559 17.0603 69.9559C15.7137 69.9559 14.6221 68.8639 14.6221 67.5172V2.91793Z" fill="#FF80FF"/>
<path d="M9.74952 18.6411C8.40464 18.6411 7.31445 19.7315 7.31445 21.0766V49.1215C7.31445 50.4666 8.40464 51.5569 9.74952 51.5569C11.0944 51.5569 12.1846 50.4666 12.1846 49.1215V21.0766C12.1846 19.7315 11.0944 18.6411 9.74952 18.6411Z" fill="#FF80FF"/>
<path d="M2.43825 28.2737C1.09165 28.2737 0 29.3655 0 30.7124V39.2413C0 40.5882 1.09165 41.68 2.43825 41.68C3.78486 41.68 4.87649 40.5882 4.87649 39.2413V30.7124C4.87649 29.3655 3.78486 28.2737 2.43825 28.2737Z" fill="#FF80FF"/>
<path d="M70.4374 39.5262C70.4374 40.8724 69.3463 41.9637 68 41.9637C66.6536 41.9637 65.5625 40.8724 65.5625 39.5262C65.5625 38.18 66.6536 37.0886 68 37.0886C69.3463 37.0886 70.4374 38.18 70.4374 39.5262Z" fill="#6669FF"/>
<path d="M92.3617 49.1656C85.7519 49.1656 81.8838 46.4568 80.9085 42.0621C80.6503 40.9002 81.6392 39.9132 82.8296 39.9132H85.6888C86.8516 39.9132 87.7066 40.9039 88.2256 41.9446C88.9137 43.324 90.3669 43.938 92.3157 43.938C95.1362 43.938 96.5694 42.6427 96.5694 40.6534C96.5694 38.8954 95.3671 37.7388 92.5006 37.7388H89.7266C84.2241 37.7388 81.1262 34.8243 81.1262 30.4294C81.1262 25.4331 85.3339 22.0559 92.2232 22.0559C98.4739 22.0559 102.222 24.7659 103.202 28.9747C103.472 30.1344 102.483 31.1233 101.292 31.1233H98.6145C97.4535 31.1233 96.6035 30.1302 96.0641 29.1021C95.4382 27.9094 94.1788 27.2836 92.3157 27.2836C89.819 27.2836 88.3858 28.3476 88.3858 30.1518C88.3858 31.8635 89.6341 32.7425 91.8994 32.7425H94.9513C101.285 32.7425 103.921 36.1659 103.921 40.4221C103.921 45.6034 99.9446 49.1656 92.3617 49.1656Z" fill="#000012"/>
<path d="M117.343 49.1656C109.575 49.1656 104.921 43.8455 104.921 35.6108C104.921 27.3761 109.205 22.0559 117.343 22.0559C123.77 22.0559 127.685 25.443 128.965 30.3061C129.284 31.518 128.284 32.6037 127.031 32.6037H124.38C123.257 32.6037 122.371 31.7128 122.031 30.6422C121.414 28.7015 119.98 27.2836 117.343 27.2836C113.367 27.2836 112.272 30.7532 112.272 35.6108C112.272 40.7459 113.69 43.938 117.343 43.938C119.772 43.938 121.192 42.5339 121.89 40.9301C122.318 39.9468 123.186 39.1267 124.259 39.1267H126.952C128.233 39.1267 129.24 40.2614 128.841 41.4788C127.392 45.8927 123.464 49.1656 117.343 49.1656Z" fill="#000012"/>
<path d="M133.163 48.3332C131.987 48.3332 131.033 47.3792 131.033 46.2029V25.0189C131.033 23.8424 131.987 22.8887 133.163 22.8887H135.956C136.991 22.8887 137.83 23.7275 137.83 24.7623V26.5788C137.83 26.6103 137.856 26.6359 137.887 26.6359C137.909 26.6359 137.929 26.6234 137.938 26.6041C139.185 24.1271 140.894 22.8887 143.841 22.8887H144.207C145.384 22.8887 146.337 23.8424 146.337 25.0189V26.1711C146.337 27.3476 145.384 28.3014 144.207 28.3014H142.454C139.356 28.3014 137.922 29.7818 137.922 33.4828V46.2029C137.922 47.3792 136.969 48.3332 135.792 48.3332H133.163Z" fill="#000012"/>
<path d="M149.568 48.3333C148.392 48.3333 147.438 47.3793 147.438 46.203V25.019C147.438 23.8425 148.392 22.8888 149.568 22.8888H152.197C153.373 22.8888 154.327 23.8425 154.327 25.019V46.203C154.327 47.3793 153.373 48.3333 152.197 48.3333H149.568ZM150.63 19.3266C148.841 19.3266 147.392 17.8767 147.392 16.0882C147.392 14.2997 148.841 12.8499 150.63 12.8499H151.181C152.97 12.8499 154.419 14.2997 154.419 16.0882C154.419 17.8767 152.97 19.3266 151.181 19.3266H150.63Z" fill="#000012"/>
<path d="M158.424 57.5853C157.247 57.5853 156.293 56.6318 156.293 55.4551V25.0189C156.293 23.8424 157.247 22.8886 158.424 22.8886H161.795C162.561 22.8886 163.183 23.51 163.183 24.2765C163.183 25.0904 163.183 25.816 163.096 26.6691C163.093 26.7008 163.118 26.7284 163.15 26.7284C163.17 26.7284 163.188 26.7169 163.198 26.699C164.681 23.802 167.495 22.0559 171.089 22.0559C176.961 22.0559 182.047 26.7284 182.047 35.6108C182.047 44.4931 176.961 49.1656 171.089 49.1656C167.495 49.1656 164.681 47.4197 163.198 44.5225C163.188 44.5046 163.17 44.4931 163.15 44.4931C163.118 44.4931 163.093 44.5208 163.096 44.5523C163.183 45.4539 163.183 46.2719 163.183 47.2228V55.4551C163.183 56.6318 162.229 57.5853 161.052 57.5853H158.424ZM163.136 35.6108C163.136 40.6997 165.125 43.938 168.916 43.938C172.661 43.938 174.696 40.6997 174.696 35.6108C174.696 30.5219 172.661 27.2836 168.916 27.2836C165.125 27.2836 163.136 30.5219 163.136 35.6108Z" fill="#000012"/>
<path d="M195.809 49.1656C188.272 49.1656 183.14 44.2618 183.14 35.6108C183.14 26.9135 188.411 22.0559 195.763 22.0559C202.883 22.0559 208.154 26.2658 208.154 34.8243V35.331C208.154 36.5075 207.201 37.4613 206.024 37.4613H190.446C190.585 41.4861 192.711 43.938 195.948 43.938C197.787 43.938 199.183 43.1826 200.039 41.9259C200.564 41.1549 201.346 40.5146 202.279 40.5146H205.099C206.456 40.5146 207.477 41.7849 206.883 43.0059C205.061 46.7529 201.133 49.1656 195.809 49.1656ZM190.492 32.7888H201.265C201.265 29.5967 199.462 27.2836 195.994 27.2836C192.434 27.2836 190.677 29.6892 190.492 32.7888Z" fill="#000012"/>
<path d="M213.211 48.3331C211.218 48.3331 209.602 46.7175 209.602 44.7244C209.602 42.7315 211.218 41.116 213.211 41.116H213.392C215.384 41.116 217 42.7315 217 44.7244C217 46.7175 215.384 48.3331 213.392 48.3331H213.211Z" fill="#000012"/>
</svg>
